<svg xmlns="http://www.w3.org/2000/svg" xmlns:xlink="http://www.w3.org/1999/xlink" zoomAndPan="magnify" preserveAspectRatio="xMidYMid meet" version="1.2" viewBox="0 0 112 112"><defs><clipPath id="69a6071f68"><path d="M 0 0 L 112.003906 0 L 112.003906 112.003906 L 0 112.003906 Z M 0 0 "/></clipPath><clipPath id="0404948696"><path d="M 28.742188 36.011719 L 76.191406 36.011719 L 76.191406 83.800781 L 28.742188 83.800781 Z M 28.742188 36.011719 "/></clipPath><clipPath id="f97b8bb7de"><path d="M 28.742188 59.195312 L 76.53125 59.195312 L 76.53125 82.339844 L 28.742188 82.339844 Z M 28.742188 59.195312 "/></clipPath><clipPath id="cf04e490e0"><path d="M 62 60 L 65 60 L 65 62.644531 L 62 62.644531 Z M 62 60 "/></clipPath><clipPath id="43d2406a54"><path d="M 63 44.726562 L 65 44.726562 L 65 47 L 63 47 Z M 63 44.726562 "/></clipPath><clipPath id="415c5c0441"><path d="M 69 52 L 71.625 52 L 71.625 53 L 69 53 Z M 69 52 "/></clipPath><clipPath id="431b975870"><path d="M 55.945312 52 L 59 52 L 59 53 L 55.945312 53 Z M 55.945312 52 "/></clipPath></defs><g id="bc8301f6d5"><g clip-rule="nonzero" clip-path="url(#69a6071f68)"><path style=" stroke:none;fill-rule:nonzero;fill:#ffffff;fill-opacity:1;" d="M 0 0 L 112.003906 0 L 112.003906 112.003906 L 0 112.003906 Z M 0 0 "/><path style=" stroke:none;fill-rule:nonzero;fill:#ffffff;fill-opacity:1;" d="M 0 0 L 112.003906 0 L 112.003906 112.003906 L 0 112.003906 Z M 0 0 "/></g><g clip-rule="nonzero" clip-path="url(#0404948696)"><path style=" stroke:none;fill-rule:nonzero;fill:#d5ecde;fill-opacity:1;" d="M 76.191406 36.011719 C 49.984375 36.011719 28.742188 57.253906 28.742188 83.460938 L 76.191406 83.460938 Z M 76.191406 36.011719 "/></g><g clip-rule="nonzero" clip-path="url(#f97b8bb7de)"><path style=" stroke:none;fill-rule:nonzero;fill:#ffffff;fill-opacity:1;" d="M 53.601562 78.773438 L 55.191406 80.445312 L 75.71875 80.617188 C 75.308594 79.105469 74.71875 77.703125 73.855469 76.460938 C 65.65625 75.191406 57.15625 73.285156 53.601562 78.773438 Z M 56.253906 79.695312 C 59.132812 77.601562 62.539062 77.789062 66.242188 79.265625 C 62.589844 78.710938 59.183594 78.6875 56.253906 79.695312 Z M 65.265625 76.765625 C 68.046875 76.777344 70.777344 77.125 73.46875 77.824219 C 70.726562 77.394531 68.019531 77.085938 65.265625 76.765625 Z M 56.441406 77.160156 C 58.832031 75.683594 62.511719 75.386719 66.667969 76.199219 C 62.738281 75.808594 59.183594 75.929688 56.441406 77.160156 Z M 69.699219 72.375 L 73.730469 75.980469 C 65.628906 74.710938 57.09375 72.976562 53.460938 78.625 L 53.175781 78.488281 C 54.878906 69.839844 63.203125 71.796875 69.699219 72.359375 Z M 33.207031 76.59375 L 32.769531 76.65625 L 32.367188 76.988281 L 31.492188 77.023438 C 30.578125 77.824219 30.054688 79.300781 29.515625 80.703125 L 49.53125 80.398438 L 52.234375 78.441406 C 50.820312 75.449219 47.816406 74.304688 44.660156 74.34375 C 40.917969 74.378906 36.851562 75.929688 33.609375 76.054688 L 33.207031 76.582031 Z M 50.269531 78.871094 C 46.328125 77.355469 41.695312 78.230469 36.761719 78.183594 C 41.292969 77.9375 45.863281 76.101562 50.269531 78.871094 Z M 33.683594 75.597656 L 36.8125 73.136719 C 39.214844 73.136719 49.019531 70.6875 51.722656 77.355469 C 50.207031 74.847656 47.417969 73.875 44.5 73.898438 C 40.84375 73.9375 36.875 75.425781 33.671875 75.597656 Z M 36.914062 68.59375 C 41.21875 69.222656 46.277344 70.171875 49.621094 73.1875 C 51.246094 74.847656 52.296875 76.582031 52.5 78.441406 L 52.3125 78.441406 C 50.332031 70.945312 40.46875 71.511719 34.910156 70.871094 Z M 76.144531 81.183594 C 76.320312 81.183594 76.457031 81.332031 76.457031 81.503906 C 76.457031 81.675781 76.308594 81.8125 76.132812 81.8125 L 55.492188 81.566406 C 55.351562 81.789062 55.089844 81.960938 54.6875 82.09375 C 54.1875 82.253906 53.476562 82.339844 52.699219 82.339844 C 51.359375 82.339844 49.882812 82.082031 49.207031 81.515625 L 29.125 81.800781 C 28.953125 81.800781 28.8125 81.664062 28.8125 81.492188 C 28.8125 81.320312 28.953125 81.183594 29.125 81.171875 L 49.332031 80.890625 C 49.417969 80.890625 49.507812 80.925781 49.570312 80.988281 C 50.171875 81.601562 52.960938 81.996094 54.5 81.503906 C 54.851562 81.394531 54.964844 81.269531 54.964844 81.222656 C 54.988281 81.0625 55.128906 80.949219 55.277344 80.949219 L 76.144531 81.210938 Z M 52.710938 78.453125 C 51.609375 72.101562 45.5 68.472656 38.390625 64.929688 L 45.402344 59.195312 C 49.082031 61.914062 52.3125 65.554688 52.710938 71.757812 Z M 67.957031 68.140625 L 70.351562 71.695312 C 62.625 70.8125 54.613281 69.457031 53.023438 78.390625 L 53.023438 71.710938 C 55.679688 67.265625 60.921875 66.625 67.957031 68.140625 Z M 67.957031 68.140625 "/></g><path style=" stroke:none;fill-rule:nonzero;fill:#ffffff;fill-opacity:1;" d="M 67.121094 48.613281 C 67.121094 48.613281 66.851562 48.394531 66.605469 48.234375 C 65.585938 47.558594 64.632812 47.332031 63.785156 47.347656 C 62.9375 47.332031 61.984375 47.558594 60.964844 48.234375 C 60.722656 48.394531 60.449219 48.613281 60.449219 48.613281 C 56.839844 51.761719 59.273438 55.59375 60.871094 57.292969 C 60.945312 57.371094 61.015625 57.445312 61.085938 57.515625 C 61.453125 57.933594 62.199219 58.941406 62.503906 60.515625 L 65.066406 60.515625 C 65.367188 58.941406 66.117188 57.933594 66.484375 57.515625 C 66.554688 57.445312 66.625 57.371094 66.699219 57.292969 C 68.296875 55.59375 70.730469 51.761719 67.121094 48.613281 "/><path style="fill:none;stroke-width:30;stroke-linecap:round;stroke-linejoin:round;stroke:#e8e8e8;stroke-opacity:1;stroke-miterlimit:10;" d="M 2015.734014 1990.535462 C 2018.318366 2003.026497 2031.240126 2033.177269 2041.577533 2034.469445 C 2055.360744 2036.192347 2063.544525 2028.008565 2075.174108 2021.11696 C 2082.927164 2016.809707 2088.095868 2010.779553 2098.00255 2010.779553 C 2119.108091 2011.210278 2120.830992 2025.424213 2126.861147 2032.746544 C 2147.966688 2058.159338 2161.319173 2021.11696 2179.409636 2013.363904 C 2188.885593 2009.487377 2200.084452 2019.394059 2206.976057 2024.993488 C 2213.436937 2030.592917 2221.189993 2034.469445 2229.373774 2033.177269 C 2242.295533 2030.592917 2253.494392 2016.378982 2262.970349 2007.33375 C 2269.861954 2000.87287 2276.753559 1980.198055 2293.551847 1981.490231 " transform="matrix(0.009069,0,0,-0.009069,44.508361,72.931082)"/><path style=" stroke:none;fill-rule:nonzero;fill:#63918b;fill-opacity:1;" d="M 63.460938 60.328125 L 62.605469 60.394531 L 62.210938 55.210938 L 63.0625 55.144531 L 63.460938 60.328125 "/><path style=" stroke:none;fill-rule:nonzero;fill:#63918b;fill-opacity:1;" d="M 62.53125 53.820312 L 62.214844 55.28125 L 63.066406 55.21875 L 62.53125 53.820312 "/><path style=" stroke:none;fill-rule:nonzero;fill:#ffffff;fill-opacity:1;" d="M 63.082031 55.402344 L 62.226562 55.464844 L 62.21875 55.363281 L 63.074219 55.296875 L 63.082031 55.402344 "/><path style=" stroke:none;fill-rule:nonzero;fill:#63918b;fill-opacity:1;" d="M 64.742188 60.394531 L 63.898438 60.269531 L 64.675781 55.125 L 65.519531 55.253906 L 64.742188 60.394531 "/><path style=" stroke:none;fill-rule:nonzero;fill:#63918b;fill-opacity:1;" d="M 65.300781 53.84375 L 64.664062 55.199219 L 65.507812 55.324219 L 65.300781 53.84375 "/><path style=" stroke:none;fill-rule:nonzero;fill:#ffffff;fill-opacity:1;" d="M 65.480469 55.507812 L 64.636719 55.378906 L 64.652344 55.277344 L 65.496094 55.40625 L 65.480469 55.507812 "/><g clip-rule="nonzero" clip-path="url(#cf04e490e0)"><path style=" stroke:none;fill-rule:nonzero;fill:#ffffff;fill-opacity:1;" d="M 64.949219 61.386719 C 64.949219 62.042969 64.429688 62.574219 63.785156 62.574219 C 63.140625 62.574219 62.621094 62.042969 62.621094 61.386719 C 62.621094 60.734375 63.140625 60.203125 63.785156 60.203125 C 64.429688 60.203125 64.949219 60.734375 64.949219 61.386719 "/></g><path style=" stroke:none;fill-rule:nonzero;fill:#ffffff;fill-opacity:1;" d="M 65.820312 60.792969 C 65.820312 60.972656 65.671875 61.117188 65.492188 61.117188 L 62.121094 61.117188 C 61.9375 61.117188 61.792969 60.972656 61.792969 60.792969 C 61.792969 60.613281 61.9375 60.464844 62.121094 60.464844 L 65.492188 60.464844 C 65.671875 60.464844 65.820312 60.613281 65.820312 60.792969 "/><path style=" stroke:none;fill-rule:nonzero;fill:#ffffff;fill-opacity:1;" d="M 65.820312 60.183594 C 65.820312 60.363281 65.671875 60.511719 65.492188 60.511719 L 62.121094 60.511719 C 61.9375 60.511719 61.792969 60.363281 61.792969 60.183594 C 61.792969 60.003906 61.9375 59.859375 62.121094 59.859375 L 65.492188 59.859375 C 65.671875 59.859375 65.820312 60.003906 65.820312 60.183594 "/><path style=" stroke:none;fill-rule:nonzero;fill:#ffffff;fill-opacity:1;" d="M 65.820312 61.386719 C 65.820312 61.570312 65.671875 61.714844 65.492188 61.714844 L 62.121094 61.714844 C 61.9375 61.714844 61.792969 61.570312 61.792969 61.386719 C 61.792969 61.207031 61.9375 61.0625 62.121094 61.0625 L 65.492188 61.0625 C 65.671875 61.0625 65.820312 61.207031 65.820312 61.386719 "/><g clip-rule="nonzero" clip-path="url(#43d2406a54)"><path style=" stroke:none;fill-rule:nonzero;fill:#ffffff;fill-opacity:1;" d="M 64.132812 46.945312 L 63.4375 46.945312 L 63.4375 44.726562 L 64.132812 44.726562 L 64.132812 46.945312 "/></g><path style=" stroke:none;fill-rule:nonzero;fill:#ffffff;fill-opacity:1;" d="M 67.425781 56.890625 L 67.917969 56.398438 L 69.484375 57.96875 L 68.996094 58.457031 L 67.425781 56.890625 "/><path style=" stroke:none;fill-rule:nonzero;fill:#ffffff;fill-opacity:1;" d="M 67.917969 48.480469 L 67.425781 47.992188 L 68.996094 46.421875 L 69.484375 46.914062 L 67.917969 48.480469 "/><g clip-rule="nonzero" clip-path="url(#415c5c0441)"><path style=" stroke:none;fill-rule:nonzero;fill:#ffffff;fill-opacity:1;" d="M 69.414062 52.789062 L 69.414062 52.09375 L 71.632812 52.09375 L 71.632812 52.789062 L 69.414062 52.789062 "/></g><path style=" stroke:none;fill-rule:nonzero;fill:#ffffff;fill-opacity:1;" d="M 60.152344 56.890625 L 59.660156 56.398438 L 58.09375 57.96875 L 58.582031 58.457031 L 60.152344 56.890625 "/><path style=" stroke:none;fill-rule:nonzero;fill:#ffffff;fill-opacity:1;" d="M 59.660156 48.480469 L 60.152344 47.992188 L 58.582031 46.421875 L 58.09375 46.914062 L 59.660156 48.480469 "/><g clip-rule="nonzero" clip-path="url(#431b975870)"><path style=" stroke:none;fill-rule:nonzero;fill:#ffffff;fill-opacity:1;" d="M 58.164062 52.789062 L 58.164062 52.09375 L 55.945312 52.09375 L 55.945312 52.789062 L 58.164062 52.789062 "/></g><g style="fill:#63918b;fill-opacity:1;"><g transform="translate(85.969294, 82.57006)"><path style="stroke:none" d="M -6.828125 -2.296875 L -4.78125 -2.296875 L -4.78125 -5.703125 L -3.421875 -5.703125 L -3.421875 -2.296875 L -1.375 -2.296875 L -1.375 -6.40625 L 0 -6.40625 L 0 -0.921875 L -8.203125 -0.921875 L -8.203125 -6.40625 L -6.828125 -6.40625 Z M -6.828125 -2.296875 "/></g></g><g style="fill:#63918b;fill-opacity:1;"><g transform="translate(85.969294, 75.681515)"><path style="stroke:none" d="M -3.5 -4.609375 L -3.5 -0.484375 L -4.75 -0.484375 L -4.75 -4.609375 Z M -3.5 -4.609375 "/></g></g><g style="fill:#63918b;fill-opacity:1;"><g transform="translate(85.969294, 70.491676)"><path style="stroke:none" d="M -8.203125 -6.546875 L 0.21875 -3.265625 L -8.203125 0 L -8.203125 -1.484375 L -3.359375 -3.265625 L -8.203125 -5.078125 Z M -8.203125 -6.546875 "/></g></g><g style="fill:#63918b;fill-opacity:1;"><g transform="translate(85.969294, 63.931158)"><path style="stroke:none" d="M -0.953125 -4.71875 L -0.953125 -1.828125 L 0 -1.484375 L 0 0 L -8.4375 -3.265625 L 0 -6.546875 L 0 -5.078125 Z M -2.140625 -2.28125 L -2.140625 -4.265625 L -4.984375 -3.265625 Z M -2.140625 -2.28125 "/></g></g><g style="fill:#63918b;fill-opacity:1;"><g transform="translate(85.969294, 57.382357)"><path style="stroke:none" d="M 0.125 -4 C 0.125 -3.4375 0.015625 -2.921875 -0.203125 -2.453125 C -0.429688 -1.992188 -0.75 -1.625 -1.15625 -1.34375 C -1.570312 -1.0625 -2.0625 -0.921875 -2.625 -0.921875 L -8.203125 -0.921875 L -8.203125 -2.296875 L -2.625 -2.296875 C -2.144531 -2.335938 -1.796875 -2.523438 -1.578125 -2.859375 C -1.359375 -3.191406 -1.25 -3.570312 -1.25 -4 C -1.25 -4.289062 -1.300781 -4.5625 -1.40625 -4.8125 C -1.507812 -5.070312 -1.660156 -5.285156 -1.859375 -5.453125 C -2.066406 -5.617188 -2.320312 -5.703125 -2.625 -5.703125 L -8.203125 -5.703125 L -8.203125 -7.078125 L -2.625 -7.078125 C -2.050781 -7.078125 -1.554688 -6.941406 -1.140625 -6.671875 C -0.734375 -6.398438 -0.421875 -6.03125 -0.203125 -5.5625 C 0.015625 -5.101562 0.125 -4.582031 0.125 -4 Z M 0.125 -4 "/></g></g><g style="fill:#63918b;fill-opacity:1;"><g transform="translate(85.969294, 49.380868)"><path style="stroke:none" d="M -1.375 -2.296875 L -1.375 -5.328125 L 0 -5.328125 L 0 -0.921875 L -8.203125 -0.921875 L -8.203125 -2.296875 Z M -1.375 -2.296875 "/></g></g><g style="fill:#63918b;fill-opacity:1;"><g transform="translate(85.969294, 43.511547)"><path style="stroke:none" d="M -6.953125 -5.046875 L -6.953125 -3.3125 L 0 -3.3125 L 0 -1.953125 L -6.953125 -1.953125 L -6.953125 -0.234375 L -8.203125 -0.234375 L -8.203125 -5.046875 Z M -6.953125 -5.046875 "/></g></g><g style="fill:#63918b;fill-opacity:1;"><g transform="translate(31.817552, 90.860295)"><path style="stroke:none" d="M 0.09375 -4.296875 C 0.09375 -4.390625 0.117188 -4.453125 0.171875 -4.484375 C 0.222656 -4.515625 0.285156 -4.53125 0.359375 -4.53125 C 0.453125 -4.53125 0.550781 -4.519531 0.65625 -4.5 C 0.757812 -4.476562 0.859375 -4.46875 0.953125 -4.46875 C 1.023438 -4.46875 1.09375 -4.46875 1.15625 -4.46875 C 1.21875 -4.46875 1.28125 -4.46875 1.34375 -4.46875 C 1.726562 -4.46875 2.0625 -4.476562 2.34375 -4.5 C 2.625 -4.53125 2.859375 -4.539062 3.046875 -4.53125 C 3.242188 -4.519531 3.382812 -4.5 3.46875 -4.46875 C 3.5625 -4.445312 3.644531 -4.347656 3.71875 -4.171875 C 3.8125 -3.953125 3.890625 -3.75 3.953125 -3.5625 C 4.023438 -3.382812 4.0625 -3.238281 4.0625 -3.125 C 4.0625 -3.019531 3.992188 -2.96875 3.859375 -2.96875 C 3.785156 -2.96875 3.71875 -3 3.65625 -3.0625 C 3.59375 -3.125 3.523438 -3.203125 3.453125 -3.296875 C 3.378906 -3.398438 3.285156 -3.5 3.171875 -3.59375 C 3.066406 -3.695312 2.921875 -3.785156 2.734375 -3.859375 C 2.554688 -3.929688 2.332031 -3.976562 2.0625 -4 C 1.988281 -4.007812 1.929688 -3.992188 1.890625 -3.953125 C 1.847656 -3.910156 1.828125 -3.851562 1.828125 -3.78125 L 1.828125 -2.703125 C 1.828125 -2.546875 1.90625 -2.476562 2.0625 -2.5 C 2.257812 -2.53125 2.40625 -2.570312 2.5 -2.625 C 2.601562 -2.6875 2.675781 -2.75 2.71875 -2.8125 C 2.769531 -2.875 2.816406 -2.925781 2.859375 -2.96875 C 2.898438 -3.007812 2.960938 -3.03125 3.046875 -3.03125 C 3.171875 -3.03125 3.242188 -2.984375 3.265625 -2.890625 C 3.285156 -2.796875 3.289062 -2.6875 3.28125 -2.5625 C 3.269531 -2.4375 3.265625 -2.332031 3.265625 -2.25 C 3.265625 -2.15625 3.269531 -2.046875 3.28125 -1.921875 C 3.289062 -1.804688 3.285156 -1.695312 3.265625 -1.59375 C 3.242188 -1.5 3.171875 -1.453125 3.046875 -1.453125 C 2.960938 -1.453125 2.898438 -1.472656 2.859375 -1.515625 C 2.816406 -1.554688 2.769531 -1.609375 2.71875 -1.671875 C 2.675781 -1.734375 2.601562 -1.789062 2.5 -1.84375 C 2.40625 -1.90625 2.257812 -1.953125 2.0625 -1.984375 C 1.90625 -1.992188 1.828125 -1.921875 1.828125 -1.765625 L 1.828125 -0.65625 C 1.828125 -0.59375 1.847656 -0.539062 1.890625 -0.5 C 1.929688 -0.457031 1.988281 -0.4375 2.0625 -0.4375 C 2.351562 -0.457031 2.59375 -0.515625 2.78125 -0.609375 C 2.976562 -0.710938 3.132812 -0.832031 3.25 -0.96875 C 3.375 -1.113281 3.476562 -1.25 3.5625 -1.375 C 3.644531 -1.507812 3.71875 -1.617188 3.78125 -1.703125 C 3.851562 -1.796875 3.9375 -1.84375 4.03125 -1.84375 C 4.175781 -1.84375 4.238281 -1.765625 4.21875 -1.609375 C 4.207031 -1.453125 4.144531 -1.171875 4.03125 -0.765625 C 3.988281 -0.597656 3.953125 -0.453125 3.921875 -0.328125 C 3.890625 -0.210938 3.84375 -0.117188 3.78125 -0.046875 C 3.726562 0.0234375 3.632812 0.0546875 3.5 0.046875 C 2.96875 0.0234375 2.507812 0.0078125 2.125 0 C 1.738281 0 1.40625 0 1.125 0 C 1.03125 0 0.921875 0.00390625 0.796875 0.015625 C 0.679688 0.0351562 0.566406 0.046875 0.453125 0.046875 C 0.347656 0.046875 0.257812 0.03125 0.1875 0 C 0.125 -0.0195312 0.09375 -0.078125 0.09375 -0.171875 C 0.09375 -0.234375 0.109375 -0.28125 0.140625 -0.3125 C 0.171875 -0.34375 0.207031 -0.382812 0.25 -0.4375 C 0.289062 -0.488281 0.320312 -0.566406 0.34375 -0.671875 C 0.375 -0.785156 0.390625 -0.945312 0.390625 -1.15625 L 0.390625 -3.328125 C 0.390625 -3.523438 0.375 -3.675781 0.34375 -3.78125 C 0.3125 -3.882812 0.273438 -3.960938 0.234375 -4.015625 C 0.191406 -4.066406 0.15625 -4.109375 0.125 -4.140625 C 0.101562 -4.179688 0.09375 -4.234375 0.09375 -4.296875 Z M 0.09375 -4.296875 "/></g></g><g style="fill:#63918b;fill-opacity:1;"><g transform="translate(36.127391, 90.860295)"><path style="stroke:none" d="M 1.109375 0 C 1.015625 0 0.90625 0.00390625 0.78125 0.015625 C 0.664062 0.0351562 0.554688 0.046875 0.453125 0.046875 C 0.347656 0.046875 0.257812 0.03125 0.1875 0 C 0.125 -0.0195312 0.09375 -0.078125 0.09375 -0.171875 C 0.09375 -0.234375 0.101562 -0.28125 0.125 -0.3125 C 0.15625 -0.34375 0.191406 -0.382812 0.234375 -0.4375 C 0.273438 -0.488281 0.3125 -0.566406 0.34375 -0.671875 C 0.375 -0.785156 0.390625 -0.945312 0.390625 -1.15625 C 0.390625 -1.351562 0.390625 -1.585938 0.390625 -1.859375 C 0.390625 -2.128906 0.390625 -2.394531 0.390625 -2.65625 C 0.398438 -2.925781 0.40625 -3.15625 0.40625 -3.34375 C 0.40625 -3.539062 0.40625 -3.664062 0.40625 -3.71875 C 0.40625 -3.882812 0.378906 -3.992188 0.328125 -4.046875 C 0.273438 -4.109375 0.222656 -4.15625 0.171875 -4.1875 C 0.117188 -4.226562 0.09375 -4.289062 0.09375 -4.375 C 0.09375 -4.46875 0.125 -4.53125 0.1875 -4.5625 C 0.25 -4.59375 0.332031 -4.617188 0.4375 -4.640625 C 0.550781 -4.671875 0.6875 -4.710938 0.84375 -4.765625 C 1.03125 -4.835938 1.160156 -4.898438 1.234375 -4.953125 C 1.304688 -5.015625 1.359375 -5.0625 1.390625 -5.09375 C 1.429688 -5.125 1.488281 -5.140625 1.5625 -5.140625 C 1.675781 -5.140625 1.75 -5.09375 1.78125 -5 C 1.8125 -4.90625 1.828125 -4.796875 1.828125 -4.671875 L 1.828125 -3.140625 C 1.828125 -3.046875 1.832031 -3 1.84375 -3 C 1.863281 -3.007812 1.894531 -3.046875 1.9375 -3.109375 C 1.988281 -3.171875 2.050781 -3.242188 2.125 -3.328125 C 2.195312 -3.410156 2.289062 -3.484375 2.40625 -3.546875 C 2.53125 -3.609375 2.679688 -3.640625 2.859375 -3.640625 C 3.160156 -3.640625 3.410156 -3.546875 3.609375 -3.359375 C 3.816406 -3.179688 3.96875 -2.953125 4.0625 -2.671875 C 4.164062 -2.398438 4.21875 -2.101562 4.21875 -1.78125 C 4.21875 -1.46875 4.160156 -1.171875 4.046875 -0.890625 C 3.941406 -0.617188 3.78125 -0.394531 3.5625 -0.21875 C 3.34375 -0.0390625 3.066406 0.046875 2.734375 0.046875 C 2.472656 0.046875 2.269531 0.0390625 2.125 0.03125 C 1.988281 0.03125 1.878906 0.0234375 1.796875 0.015625 C 1.710938 0.015625 1.617188 0.0078125 1.515625 0 C 1.421875 0 1.285156 0 1.109375 0 Z M 2.28125 -2.625 C 2.101562 -2.625 1.976562 -2.519531 1.90625 -2.3125 C 1.832031 -2.113281 1.796875 -1.878906 1.796875 -1.609375 C 1.796875 -1.335938 1.832031 -1.109375 1.90625 -0.921875 C 1.988281 -0.734375 2.113281 -0.640625 2.28125 -0.640625 C 2.4375 -0.640625 2.550781 -0.734375 2.625 -0.921875 C 2.707031 -1.117188 2.75 -1.351562 2.75 -1.625 C 2.75 -1.882812 2.707031 -2.113281 2.625 -2.3125 C 2.550781 -2.519531 2.4375 -2.625 2.28125 -2.625 Z M 2.28125 -2.625 "/></g></g><g style="fill:#63918b;fill-opacity:1;"><g transform="translate(40.535793, 90.860295)"><path style="stroke:none" d="M 2.125 0.046875 C 1.53125 0.046875 1.054688 -0.113281 0.703125 -0.4375 C 0.347656 -0.757812 0.171875 -1.210938 0.171875 -1.796875 C 0.171875 -2.378906 0.347656 -2.832031 0.703125 -3.15625 C 1.054688 -3.476562 1.53125 -3.640625 2.125 -3.640625 C 2.71875 -3.640625 3.1875 -3.476562 3.53125 -3.15625 C 3.882812 -2.832031 4.0625 -2.378906 4.0625 -1.796875 C 4.0625 -1.210938 3.882812 -0.757812 3.53125 -0.4375 C 3.1875 -0.113281 2.71875 0.046875 2.125 0.046875 Z M 1.65625 -1.796875 C 1.65625 -1.546875 1.664062 -1.316406 1.6875 -1.109375 C 1.71875 -0.910156 1.765625 -0.75 1.828125 -0.625 C 1.898438 -0.507812 2 -0.453125 2.125 -0.453125 C 2.25 -0.453125 2.34375 -0.507812 2.40625 -0.625 C 2.476562 -0.75 2.523438 -0.910156 2.546875 -1.109375 C 2.578125 -1.316406 2.59375 -1.546875 2.59375 -1.796875 C 2.59375 -2.046875 2.578125 -2.269531 2.546875 -2.46875 C 2.523438 -2.675781 2.476562 -2.835938 2.40625 -2.953125 C 2.34375 -3.078125 2.25 -3.140625 2.125 -3.140625 C 2 -3.140625 1.898438 -3.078125 1.828125 -2.953125 C 1.765625 -2.835938 1.71875 -2.675781 1.6875 -2.46875 C 1.664062 -2.269531 1.65625 -2.046875 1.65625 -1.796875 Z M 1.65625 -1.796875 "/></g></g><g style="fill:#63918b;fill-opacity:1;"><g transform="translate(44.782911, 90.860295)"><path style="stroke:none" d="M 2.125 0.046875 C 1.53125 0.046875 1.054688 -0.113281 0.703125 -0.4375 C 0.347656 -0.757812 0.171875 -1.210938 0.171875 -1.796875 C 0.171875 -2.378906 0.347656 -2.832031 0.703125 -3.15625 C 1.054688 -3.476562 1.53125 -3.640625 2.125 -3.640625 C 2.71875 -3.640625 3.1875 -3.476562 3.53125 -3.15625 C 3.882812 -2.832031 4.0625 -2.378906 4.0625 -1.796875 C 4.0625 -1.210938 3.882812 -0.757812 3.53125 -0.4375 C 3.1875 -0.113281 2.71875 0.046875 2.125 0.046875 Z M 1.65625 -1.796875 C 1.65625 -1.546875 1.664062 -1.316406 1.6875 -1.109375 C 1.71875 -0.910156 1.765625 -0.75 1.828125 -0.625 C 1.898438 -0.507812 2 -0.453125 2.125 -0.453125 C 2.25 -0.453125 2.34375 -0.507812 2.40625 -0.625 C 2.476562 -0.75 2.523438 -0.910156 2.546875 -1.109375 C 2.578125 -1.316406 2.59375 -1.546875 2.59375 -1.796875 C 2.59375 -2.046875 2.578125 -2.269531 2.546875 -2.46875 C 2.523438 -2.675781 2.476562 -2.835938 2.40625 -2.953125 C 2.34375 -3.078125 2.25 -3.140625 2.125 -3.140625 C 2 -3.140625 1.898438 -3.078125 1.828125 -2.953125 C 1.765625 -2.835938 1.71875 -2.675781 1.6875 -2.46875 C 1.664062 -2.269531 1.65625 -2.046875 1.65625 -1.796875 Z M 1.65625 -1.796875 "/></g></g><g style="fill:#63918b;fill-opacity:1;"><g transform="translate(49.03003, 90.860295)"><path style="stroke:none" d="M 1.109375 0 C 1.015625 0 0.90625 0.00390625 0.78125 0.015625 C 0.664062 0.0351562 0.554688 0.046875 0.453125 0.046875 C 0.347656 0.046875 0.257812 0.03125 0.1875 0 C 0.125 -0.0195312 0.09375 -0.078125 0.09375 -0.171875 C 0.09375 -0.234375 0.101562 -0.28125 0.125 -0.3125 C 0.15625 -0.34375 0.191406 -0.382812 0.234375 -0.4375 C 0.273438 -0.488281 0.3125 -0.566406 0.34375 -0.671875 C 0.375 -0.785156 0.390625 -0.945312 0.390625 -1.15625 C 0.390625 -1.351562 0.390625 -1.585938 0.390625 -1.859375 C 0.390625 -2.128906 0.390625 -2.394531 0.390625 -2.65625 C 0.398438 -2.925781 0.40625 -3.15625 0.40625 -3.34375 C 0.40625 -3.539062 0.40625 -3.664062 0.40625 -3.71875 C 0.40625 -3.882812 0.378906 -4 0.328125 -4.0625 C 0.273438 -4.125 0.222656 -4.171875 0.171875 -4.203125 C 0.117188 -4.242188 0.09375 -4.300781 0.09375 -4.375 C 0.09375 -4.46875 0.125 -4.53125 0.1875 -4.5625 C 0.25 -4.59375 0.332031 -4.617188 0.4375 -4.640625 C 0.550781 -4.671875 0.6875 -4.710938 0.84375 -4.765625 C 1.03125 -4.835938 1.160156 -4.898438 1.234375 -4.953125 C 1.304688 -5.015625 1.359375 -5.0625 1.390625 -5.09375 C 1.429688 -5.125 1.488281 -5.140625 1.5625 -5.140625 C 1.675781 -5.140625 1.75 -5.09375 1.78125 -5 C 1.8125 -4.90625 1.828125 -4.796875 1.828125 -4.671875 L 1.828125 -2.21875 C 1.847656 -2.195312 1.878906 -2.203125 1.921875 -2.234375 C 2.078125 -2.390625 2.1875 -2.515625 2.25 -2.609375 C 2.320312 -2.703125 2.367188 -2.78125 2.390625 -2.84375 C 2.410156 -2.90625 2.421875 -2.960938 2.421875 -3.015625 C 2.421875 -3.078125 2.394531 -3.128906 2.34375 -3.171875 C 2.289062 -3.210938 2.265625 -3.269531 2.265625 -3.34375 C 2.265625 -3.394531 2.285156 -3.445312 2.328125 -3.5 C 2.378906 -3.550781 2.4375 -3.578125 2.5 -3.578125 C 2.613281 -3.578125 2.707031 -3.566406 2.78125 -3.546875 C 2.851562 -3.535156 2.945312 -3.53125 3.0625 -3.53125 C 3.175781 -3.53125 3.273438 -3.535156 3.359375 -3.546875 C 3.453125 -3.566406 3.5625 -3.578125 3.6875 -3.578125 C 3.75 -3.578125 3.800781 -3.554688 3.84375 -3.515625 C 3.894531 -3.472656 3.921875 -3.414062 3.921875 -3.34375 C 3.921875 -3.21875 3.84375 -3.125 3.6875 -3.0625 C 3.539062 -3.007812 3.375 -2.941406 3.1875 -2.859375 C 3.070312 -2.804688 2.894531 -2.6875 2.65625 -2.5 C 2.59375 -2.445312 2.566406 -2.398438 2.578125 -2.359375 C 2.597656 -2.316406 2.644531 -2.296875 2.71875 -2.296875 C 2.894531 -2.296875 3.039062 -2.242188 3.15625 -2.140625 C 3.28125 -2.035156 3.378906 -1.90625 3.453125 -1.75 C 3.535156 -1.59375 3.601562 -1.429688 3.65625 -1.265625 C 3.71875 -1.097656 3.773438 -0.957031 3.828125 -0.84375 C 3.898438 -0.675781 3.96875 -0.554688 4.03125 -0.484375 C 4.09375 -0.410156 4.144531 -0.351562 4.1875 -0.3125 C 4.226562 -0.28125 4.25 -0.234375 4.25 -0.171875 C 4.25 -0.0234375 4.132812 0.046875 3.90625 0.046875 C 3.78125 0.0546875 3.6875 0.0507812 3.625 0.03125 C 3.5625 0.0078125 3.476562 0 3.375 0 C 3.332031 0 3.257812 0 3.15625 0 C 3.0625 0.0078125 2.976562 0.0195312 2.90625 0.03125 C 2.75 0.0625 2.644531 0.0390625 2.59375 -0.03125 C 2.539062 -0.101562 2.488281 -0.207031 2.4375 -0.34375 C 2.34375 -0.570312 2.253906 -0.804688 2.171875 -1.046875 C 2.097656 -1.296875 2.015625 -1.539062 1.921875 -1.78125 C 1.898438 -1.8125 1.867188 -1.816406 1.828125 -1.796875 L 1.828125 -1.15625 C 1.828125 -0.945312 1.84375 -0.785156 1.875 -0.671875 C 1.90625 -0.566406 1.941406 -0.488281 1.984375 -0.4375 C 2.023438 -0.382812 2.0625 -0.34375 2.09375 -0.3125 C 2.125 -0.28125 2.140625 -0.234375 2.140625 -0.171875 C 2.140625 -0.078125 2.101562 -0.0195312 2.03125 0 C 1.96875 0.03125 1.882812 0.046875 1.78125 0.046875 C 1.664062 0.046875 1.546875 0.0351562 1.421875 0.015625 C 1.304688 0.00390625 1.203125 0 1.109375 0 Z M 1.109375 0 "/></g></g><g style="fill:#63918b;fill-opacity:1;"><g transform="translate(53.375711, 90.860295)"><path style="stroke:none" d=""/></g><g transform="translate(54.719738, 90.860295)"><path style="stroke:none" d="M 0.234375 -0.890625 C 0.234375 -1.066406 0.222656 -1.222656 0.203125 -1.359375 C 0.179688 -1.492188 0.175781 -1.597656 0.1875 -1.671875 C 0.195312 -1.753906 0.253906 -1.796875 0.359375 -1.796875 C 0.429688 -1.796875 0.503906 -1.753906 0.578125 -1.671875 C 0.648438 -1.585938 0.726562 -1.476562 0.8125 -1.34375 C 0.90625 -1.21875 1.015625 -1.085938 1.140625 -0.953125 C 1.273438 -0.828125 1.429688 -0.722656 1.609375 -0.640625 C 1.785156 -0.554688 2 -0.515625 2.25 -0.515625 C 2.394531 -0.515625 2.507812 -0.535156 2.59375 -0.578125 C 2.6875 -0.628906 2.734375 -0.722656 2.734375 -0.859375 C 2.734375 -0.972656 2.671875 -1.070312 2.546875 -1.15625 C 2.429688 -1.25 2.273438 -1.332031 2.078125 -1.40625 C 1.890625 -1.488281 1.6875 -1.578125 1.46875 -1.671875 C 1.257812 -1.765625 1.054688 -1.875 0.859375 -2 C 0.671875 -2.132812 0.515625 -2.296875 0.390625 -2.484375 C 0.273438 -2.679688 0.21875 -2.921875 0.21875 -3.203125 C 0.21875 -3.578125 0.359375 -3.890625 0.640625 -4.140625 C 0.921875 -4.398438 1.335938 -4.53125 1.890625 -4.53125 C 2.066406 -4.53125 2.207031 -4.519531 2.3125 -4.5 C 2.425781 -4.476562 2.550781 -4.46875 2.6875 -4.46875 C 2.789062 -4.46875 2.878906 -4.476562 2.953125 -4.5 C 3.035156 -4.519531 3.109375 -4.53125 3.171875 -4.53125 C 3.210938 -4.53125 3.25 -4.519531 3.28125 -4.5 C 3.320312 -4.476562 3.351562 -4.441406 3.375 -4.390625 C 3.507812 -4.097656 3.617188 -3.84375 3.703125 -3.625 C 3.785156 -3.40625 3.816406 -3.238281 3.796875 -3.125 C 3.773438 -3.019531 3.675781 -2.96875 3.5 -2.96875 C 3.394531 -2.96875 3.296875 -3.019531 3.203125 -3.125 C 3.117188 -3.226562 3.03125 -3.347656 2.9375 -3.484375 C 2.84375 -3.628906 2.734375 -3.753906 2.609375 -3.859375 C 2.484375 -3.960938 2.335938 -4.015625 2.171875 -4.015625 C 2.003906 -4.015625 1.875 -3.96875 1.78125 -3.875 C 1.6875 -3.789062 1.640625 -3.671875 1.640625 -3.515625 C 1.640625 -3.378906 1.695312 -3.265625 1.8125 -3.171875 C 1.9375 -3.078125 2.085938 -2.992188 2.265625 -2.921875 C 2.441406 -2.847656 2.632812 -2.769531 2.84375 -2.6875 C 3.050781 -2.601562 3.242188 -2.5 3.421875 -2.375 C 3.597656 -2.257812 3.742188 -2.113281 3.859375 -1.9375 C 3.972656 -1.757812 4.03125 -1.53125 4.03125 -1.25 C 4.03125 -0.96875 3.941406 -0.726562 3.765625 -0.53125 C 3.585938 -0.332031 3.359375 -0.1875 3.078125 -0.09375 C 2.804688 0 2.515625 0.046875 2.203125 0.046875 C 1.972656 0.046875 1.78125 0.0351562 1.625 0.015625 C 1.46875 0.00390625 1.273438 0 1.046875 0 C 0.898438 0 0.789062 0.00390625 0.71875 0.015625 C 0.644531 0.0351562 0.546875 0.046875 0.421875 0.046875 C 0.296875 0.046875 0.222656 0.00390625 0.203125 -0.078125 C 0.179688 -0.160156 0.179688 -0.273438 0.203125 -0.421875 C 0.222656 -0.566406 0.234375 -0.722656 0.234375 -0.890625 Z M 0.234375 -0.890625 "/></g></g><g style="fill:#63918b;fill-opacity:1;"><g transform="translate(58.939977, 90.860295)"><path style="stroke:none" d="M 0.09375 -3.359375 C 0.09375 -3.453125 0.117188 -3.515625 0.171875 -3.546875 C 0.234375 -3.578125 0.316406 -3.609375 0.421875 -3.640625 C 0.535156 -3.671875 0.664062 -3.726562 0.8125 -3.8125 C 1 -3.9375 1.132812 -4.050781 1.21875 -4.15625 C 1.300781 -4.269531 1.363281 -4.359375 1.40625 -4.421875 C 1.457031 -4.492188 1.523438 -4.53125 1.609375 -4.53125 C 1.710938 -4.53125 1.773438 -4.472656 1.796875 -4.359375 C 1.816406 -4.253906 1.828125 -4.140625 1.828125 -4.015625 L 1.828125 -3.6875 C 1.828125 -3.613281 1.859375 -3.578125 1.921875 -3.578125 L 2.0625 -3.578125 C 2.21875 -3.578125 2.296875 -3.503906 2.296875 -3.359375 C 2.296875 -3.203125 2.21875 -3.125 2.0625 -3.125 L 1.921875 -3.125 C 1.859375 -3.125 1.828125 -3.09375 1.828125 -3.03125 L 1.828125 -1.984375 C 1.828125 -1.597656 1.832031 -1.316406 1.84375 -1.140625 C 1.851562 -0.972656 1.898438 -0.847656 1.984375 -0.765625 C 2.035156 -0.710938 2.078125 -0.679688 2.109375 -0.671875 C 2.148438 -0.660156 2.175781 -0.644531 2.1875 -0.625 C 2.207031 -0.601562 2.21875 -0.5625 2.21875 -0.5 C 2.21875 -0.382812 2.148438 -0.265625 2.015625 -0.140625 C 1.890625 -0.015625 1.671875 0.046875 1.359375 0.046875 C 0.972656 0.046875 0.710938 -0.0859375 0.578125 -0.359375 C 0.453125 -0.628906 0.390625 -0.984375 0.390625 -1.421875 L 0.390625 -2.71875 C 0.390625 -2.875 0.363281 -2.984375 0.3125 -3.046875 C 0.257812 -3.109375 0.207031 -3.15625 0.15625 -3.1875 C 0.113281 -3.226562 0.09375 -3.285156 0.09375 -3.359375 Z M 0.09375 -3.359375 "/></g></g><g style="fill:#63918b;fill-opacity:1;"><g transform="translate(61.27858, 90.860295)"><path style="stroke:none" d="M 2.125 0.046875 C 1.53125 0.046875 1.054688 -0.113281 0.703125 -0.4375 C 0.347656 -0.757812 0.171875 -1.210938 0.171875 -1.796875 C 0.171875 -2.378906 0.347656 -2.832031 0.703125 -3.15625 C 1.054688 -3.476562 1.53125 -3.640625 2.125 -3.640625 C 2.71875 -3.640625 3.1875 -3.476562 3.53125 -3.15625 C 3.882812 -2.832031 4.0625 -2.378906 4.0625 -1.796875 C 4.0625 -1.210938 3.882812 -0.757812 3.53125 -0.4375 C 3.1875 -0.113281 2.71875 0.046875 2.125 0.046875 Z M 1.65625 -1.796875 C 1.65625 -1.546875 1.664062 -1.316406 1.6875 -1.109375 C 1.71875 -0.910156 1.765625 -0.75 1.828125 -0.625 C 1.898438 -0.507812 2 -0.453125 2.125 -0.453125 C 2.25 -0.453125 2.34375 -0.507812 2.40625 -0.625 C 2.476562 -0.75 2.523438 -0.910156 2.546875 -1.109375 C 2.578125 -1.316406 2.59375 -1.546875 2.59375 -1.796875 C 2.59375 -2.046875 2.578125 -2.269531 2.546875 -2.46875 C 2.523438 -2.675781 2.476562 -2.835938 2.40625 -2.953125 C 2.34375 -3.078125 2.25 -3.140625 2.125 -3.140625 C 2 -3.140625 1.898438 -3.078125 1.828125 -2.953125 C 1.765625 -2.835938 1.71875 -2.675781 1.6875 -2.46875 C 1.664062 -2.269531 1.65625 -2.046875 1.65625 -1.796875 Z M 1.65625 -1.796875 "/></g></g><g style="fill:#63918b;fill-opacity:1;"><g transform="translate(65.525699, 90.860295)"><path style="stroke:none" d="M 0.09375 -0.171875 C 0.09375 -0.234375 0.101562 -0.28125 0.125 -0.3125 C 0.15625 -0.34375 0.191406 -0.382812 0.234375 -0.4375 C 0.273438 -0.488281 0.3125 -0.566406 0.34375 -0.671875 C 0.375 -0.785156 0.390625 -0.945312 0.390625 -1.15625 C 0.390625 -1.425781 0.390625 -1.625 0.390625 -1.75 C 0.398438 -1.875 0.40625 -1.960938 0.40625 -2.015625 C 0.40625 -2.078125 0.40625 -2.144531 0.40625 -2.21875 C 0.40625 -2.375 0.378906 -2.484375 0.328125 -2.546875 C 0.273438 -2.609375 0.222656 -2.65625 0.171875 -2.6875 C 0.117188 -2.726562 0.09375 -2.785156 0.09375 -2.859375 C 0.09375 -2.953125 0.125 -3.015625 0.1875 -3.046875 C 0.25 -3.078125 0.332031 -3.101562 0.4375 -3.125 C 0.550781 -3.15625 0.6875 -3.195312 0.84375 -3.25 C 1.03125 -3.320312 1.160156 -3.382812 1.234375 -3.4375 C 1.304688 -3.5 1.359375 -3.546875 1.390625 -3.578125 C 1.429688 -3.617188 1.488281 -3.640625 1.5625 -3.640625 C 1.675781 -3.640625 1.75 -3.585938 1.78125 -3.484375 C 1.8125 -3.390625 1.828125 -3.28125 1.828125 -3.15625 L 1.828125 -3.109375 C 1.828125 -2.960938 1.832031 -2.890625 1.84375 -2.890625 C 1.851562 -2.898438 1.894531 -2.96875 1.96875 -3.09375 C 2.070312 -3.269531 2.210938 -3.40625 2.390625 -3.5 C 2.578125 -3.59375 2.753906 -3.640625 2.921875 -3.640625 C 3.242188 -3.640625 3.453125 -3.566406 3.546875 -3.421875 C 3.648438 -3.285156 3.65625 -3.082031 3.5625 -2.8125 C 3.488281 -2.59375 3.421875 -2.441406 3.359375 -2.359375 C 3.304688 -2.285156 3.253906 -2.25 3.203125 -2.25 C 3.140625 -2.25 3.070312 -2.285156 3 -2.359375 C 2.9375 -2.429688 2.859375 -2.5 2.765625 -2.5625 C 2.679688 -2.632812 2.578125 -2.671875 2.453125 -2.671875 C 2.378906 -2.671875 2.289062 -2.644531 2.1875 -2.59375 C 2.09375 -2.550781 2.007812 -2.46875 1.9375 -2.34375 C 1.863281 -2.21875 1.828125 -2.039062 1.828125 -1.8125 L 1.828125 -1.15625 C 1.828125 -0.945312 1.84375 -0.785156 1.875 -0.671875 C 1.90625 -0.566406 1.941406 -0.488281 1.984375 -0.4375 C 2.023438 -0.382812 2.0625 -0.34375 2.09375 -0.3125 C 2.125 -0.28125 2.140625 -0.234375 2.140625 -0.171875 C 2.140625 -0.078125 2.101562 -0.0195312 2.03125 0 C 1.96875 0.03125 1.882812 0.046875 1.78125 0.046875 C 1.664062 0.046875 1.546875 0.0351562 1.421875 0.015625 C 1.304688 0.00390625 1.203125 0 1.109375 0 C 1.015625 0 0.90625 0.00390625 0.78125 0.015625 C 0.664062 0.0351562 0.554688 0.046875 0.453125 0.046875 C 0.347656 0.046875 0.257812 0.03125 0.1875 0 C 0.125 -0.0195312 0.09375 -0.078125 0.09375 -0.171875 Z M 0.09375 -0.171875 "/></g></g><g style="fill:#63918b;fill-opacity:1;"><g transform="translate(69.28897, 90.860295)"><path style="stroke:none" d="M 2.15625 0.046875 C 1.84375 0.046875 1.53125 -0.015625 1.21875 -0.140625 C 0.914062 -0.265625 0.664062 -0.457031 0.46875 -0.71875 C 0.269531 -0.988281 0.171875 -1.34375 0.171875 -1.78125 C 0.171875 -2.15625 0.25 -2.476562 0.40625 -2.75 C 0.570312 -3.03125 0.796875 -3.25 1.078125 -3.40625 C 1.367188 -3.5625 1.707031 -3.640625 2.09375 -3.640625 C 2.457031 -3.640625 2.753906 -3.59375 2.984375 -3.5 C 3.222656 -3.40625 3.40625 -3.289062 3.53125 -3.15625 C 3.65625 -3.019531 3.742188 -2.875 3.796875 -2.71875 C 3.847656 -2.570312 3.875 -2.445312 3.875 -2.34375 C 3.875 -2.039062 3.78125 -1.796875 3.59375 -1.609375 C 3.40625 -1.421875 3.164062 -1.285156 2.875 -1.203125 C 2.59375 -1.117188 2.300781 -1.078125 2 -1.078125 C 1.914062 -1.078125 1.851562 -1.046875 1.8125 -0.984375 C 1.78125 -0.921875 1.769531 -0.847656 1.78125 -0.765625 C 1.800781 -0.691406 1.847656 -0.625 1.921875 -0.5625 C 2.003906 -0.507812 2.125 -0.484375 2.28125 -0.484375 C 2.488281 -0.484375 2.65625 -0.519531 2.78125 -0.59375 C 2.90625 -0.675781 3.003906 -0.765625 3.078125 -0.859375 C 3.160156 -0.960938 3.234375 -1.050781 3.296875 -1.125 C 3.367188 -1.207031 3.460938 -1.25 3.578125 -1.25 C 3.671875 -1.25 3.742188 -1.21875 3.796875 -1.15625 C 3.847656 -1.09375 3.875 -1.023438 3.875 -0.953125 C 3.875 -0.742188 3.796875 -0.566406 3.640625 -0.421875 C 3.484375 -0.273438 3.269531 -0.160156 3 -0.078125 C 2.738281 0.00390625 2.457031 0.046875 2.15625 0.046875 Z M 2.09375 -3.171875 C 1.957031 -3.171875 1.851562 -3.097656 1.78125 -2.953125 C 1.707031 -2.804688 1.671875 -2.609375 1.671875 -2.359375 C 1.671875 -2.109375 1.707031 -1.90625 1.78125 -1.75 C 1.851562 -1.601562 1.957031 -1.53125 2.09375 -1.53125 C 2.21875 -1.53125 2.316406 -1.601562 2.390625 -1.75 C 2.460938 -1.90625 2.5 -2.109375 2.5 -2.359375 C 2.5 -2.609375 2.460938 -2.804688 2.390625 -2.953125 C 2.316406 -3.097656 2.21875 -3.171875 2.09375 -3.171875 Z M 2.09375 -3.171875 "/></g></g></g></svg>